<svg xmlns="http://www.w3.org/2000/svg" xmlns:xlink="http://www.w3.org/1999/xlink" width="180" zoomAndPan="magnify" viewBox="0 0 135 135.000003" height="180" preserveAspectRatio="xMidYMid meet" version="1.0"><defs><clipPath id="d813411ae9"><path d="M 0.496094 0 L 134.503906 0 L 134.503906 134.007812 L 0.496094 134.007812 Z M 0.496094 0 " clip-rule="nonzero"/></clipPath></defs><g clip-path="url(#d813411ae9)"><path fill="#ffffff" d="M 0.496094 0 L 134.503906 0 L 134.503906 134.007812 L 0.496094 134.007812 Z M 0.496094 0 " fill-opacity="1" fill-rule="nonzero"/><path fill="#ffffff" d="M 0.496094 0 L 134.503906 0 L 134.503906 134.007812 L 0.496094 134.007812 Z M 0.496094 0 " fill-opacity="1" fill-rule="nonzero"/></g><path fill="#1649ff" d="M 12.066406 111.347656 C 12.066406 112.078125 12.136719 112.796875 12.28125 113.511719 C 12.421875 114.226562 12.632812 114.917969 12.910156 115.59375 C 13.1875 116.265625 13.53125 116.902344 13.933594 117.507812 C 14.339844 118.113281 14.800781 118.675781 15.3125 119.1875 C 15.828125 119.703125 16.386719 120.164062 16.992188 120.566406 C 17.597656 120.972656 18.238281 121.3125 18.910156 121.59375 C 19.582031 121.871094 20.277344 122.082031 20.988281 122.222656 C 21.703125 122.363281 22.425781 122.4375 23.152344 122.4375 L 111.847656 122.4375 C 112.574219 122.4375 113.292969 122.363281 114.007812 122.222656 C 114.722656 122.082031 115.414062 121.871094 116.089844 121.59375 C 116.761719 121.3125 117.398438 120.972656 118.003906 120.566406 C 118.609375 120.164062 119.171875 119.703125 119.683594 119.1875 C 120.199219 118.675781 120.660156 118.113281 121.0625 117.507812 C 121.46875 116.902344 121.808594 116.265625 122.089844 115.59375 C 122.367188 114.917969 122.578125 114.226562 122.71875 113.511719 C 122.859375 112.796875 122.933594 112.078125 122.933594 111.347656 L 122.933594 22.65625 C 122.933594 21.929688 122.859375 21.207031 122.71875 20.492188 C 122.578125 19.78125 122.367188 19.085938 122.089844 18.414062 C 121.808594 17.742188 121.46875 17.101562 121.0625 16.496094 C 120.660156 15.890625 120.199219 15.332031 119.683594 14.816406 C 119.171875 14.300781 118.609375 13.84375 118.003906 13.4375 C 117.398438 13.035156 116.761719 12.691406 116.089844 12.414062 C 115.414062 12.136719 114.722656 11.925781 114.007812 11.785156 C 113.292969 11.640625 112.574219 11.570312 111.847656 11.570312 L 23.152344 11.570312 C 22.425781 11.570312 21.703125 11.640625 20.988281 11.785156 C 20.277344 11.925781 19.582031 12.136719 18.910156 12.414062 C 18.238281 12.691406 17.597656 13.035156 16.992188 13.4375 C 16.386719 13.84375 15.828125 14.300781 15.3125 14.816406 C 14.800781 15.332031 14.339844 15.890625 13.933594 16.496094 C 13.53125 17.101562 13.1875 17.742188 12.910156 18.414062 C 12.632812 19.085938 12.421875 19.78125 12.28125 20.492188 C 12.136719 21.207031 12.066406 21.929688 12.066406 22.65625 Z M 23.152344 115.042969 C 22.664062 115.042969 22.191406 114.949219 21.738281 114.761719 C 21.285156 114.574219 20.886719 114.308594 20.539062 113.960938 C 20.195312 113.617188 19.925781 113.214844 19.738281 112.761719 C 19.550781 112.3125 19.457031 111.839844 19.457031 111.347656 L 19.457031 106.789062 L 27.714844 115.042969 Z M 38.164062 115.042969 L 19.457031 96.339844 L 19.457031 88.3125 L 46.191406 115.042969 Z M 56.640625 115.042969 L 19.457031 77.859375 L 19.457031 69.832031 L 64.667969 115.042969 Z M 75.121094 115.042969 L 19.457031 59.382812 L 19.457031 51.355469 L 83.144531 115.042969 Z M 93.597656 115.042969 L 19.457031 40.90625 L 19.457031 32.878906 L 101.625 115.042969 Z M 112.070312 115.039062 L 19.457031 22.433594 C 19.484375 21.964844 19.601562 21.515625 19.800781 21.089844 C 20 20.660156 20.273438 20.285156 20.617188 19.964844 C 20.957031 19.640625 21.351562 19.394531 21.789062 19.21875 C 22.226562 19.046875 22.683594 18.960938 23.152344 18.960938 L 24.019531 18.960938 L 115.542969 110.484375 L 115.542969 111.347656 C 115.542969 111.820312 115.453125 112.273438 115.28125 112.710938 C 115.105469 113.148438 114.859375 113.539062 114.535156 113.882812 C 114.214844 114.226562 113.839844 114.496094 113.410156 114.695312 C 112.984375 114.894531 112.539062 115.007812 112.066406 115.039062 M 115.539062 100.035156 L 34.46875 18.960938 L 42.496094 18.960938 L 115.542969 92.007812 Z M 52.945312 18.960938 L 60.972656 18.960938 L 115.542969 73.53125 L 115.542969 81.554688 Z M 71.425781 18.960938 L 79.449219 18.960938 L 115.542969 55.050781 L 115.542969 63.078125 Z M 89.902344 18.960938 L 97.929688 18.960938 L 115.542969 36.574219 L 115.542969 44.601562 Z M 108.378906 18.960938 L 111.847656 18.960938 C 112.335938 18.960938 112.808594 19.054688 113.261719 19.242188 C 113.710938 19.429688 114.113281 19.695312 114.457031 20.042969 C 114.804688 20.390625 115.074219 20.789062 115.261719 21.242188 C 115.449219 21.695312 115.542969 22.167969 115.542969 22.65625 L 115.542969 26.125 Z M 108.378906 18.960938 " fill-opacity="1" fill-rule="nonzero"/></svg>